<svg width="61" height="60" viewBox="0 0 61 60" fill="none" xmlns="http://www.w3.org/2000/svg">
<rect x="0.121094" width="60" height="60" fill="white"/>
<path d="M4.14258 39.5853V6.81233C4.14258 6.24624 4.62696 5.75995 5.19285 5.75995H54.7784C55.3434 5.75995 55.8287 6.2453 55.8287 6.81233V39.5853H4.14258Z" fill="#2B2F33"/>
<path d="M55.8267 39.5854V43.7931C55.8267 44.3592 55.3424 44.8455 54.7765 44.8455H5.19089C4.62594 44.8455 4.14062 44.3601 4.14062 43.7931V39.5854H55.8267Z" fill="#CFDCE5"/>
<path d="M41.0516 52.2898H18.9238V53.3422H41.0516V52.2898Z" fill="#CFDCE5"/>
<path d="M37.3348 52.2899H22.6367L23.687 44.8453H36.2846L37.3348 52.2899Z" fill="#AAC1CE"/>
<path d="M53.7282 7.86469H6.24219V37.4815H53.7282V7.86469Z" fill="white"/>
<path d="M36.2837 44.8455H23.6861L23.0996 49.0005L36.473 46.1832L36.2837 44.8455Z" fill="#8BA0AE"/>
<path d="M59.9618 53.301H0V54.2398H59.9618V53.301Z" fill="#8BA0AE"/>
<path d="M48.3463 53.3423H36.3324C35.0564 53.3423 34.0117 52.2955 34.0117 51.0169V25.6265C34.0117 24.3479 35.0554 23.3011 36.3324 23.3011H48.3473C49.6233 23.3011 50.668 24.3479 50.668 25.6265V51.0169C50.667 52.2955 49.6224 53.3423 48.3463 53.3423Z" fill="#2B2F33"/>
<path d="M49.5677 25.6716H35.1094V49.3572H49.5677V25.6716Z" fill="white"/>
<path d="M44.5091 24.733H41.5503C41.4173 24.733 41.3086 24.6243 41.3086 24.4912C41.3086 24.3582 41.4173 24.2495 41.5503 24.2495H44.5091C44.6421 24.2495 44.7508 24.3582 44.7508 24.4912C44.7508 24.6243 44.6421 24.733 44.5091 24.733Z" fill="#CFDCE5"/>
<path d="M40.1719 24.7339C40.3057 24.7339 40.4141 24.6255 40.4141 24.4917C40.4141 24.358 40.3057 24.2495 40.1719 24.2495C40.0381 24.2495 39.9297 24.358 39.9297 24.4917C39.9297 24.6255 40.0381 24.7339 40.1719 24.7339Z" fill="#CFDCE5"/>
<path d="M42.3403 52.4955C41.7097 52.4955 41.1973 51.981 41.1973 51.3502C41.1973 50.7193 41.7107 50.2048 42.3403 50.2048C42.9699 50.2048 43.4833 50.7193 43.4833 51.3502C43.4833 51.981 42.9708 52.4955 42.3403 52.4955ZM42.3403 50.4386C41.839 50.4386 41.4315 50.847 41.4315 51.3492C41.4315 51.8515 41.839 52.2598 42.3403 52.2598C42.8415 52.2598 43.2491 51.8515 43.2491 51.3492C43.2491 50.847 42.8415 50.4386 42.3403 50.4386Z" fill="#CFDCE5"/>
<path d="M40.0254 34.0653C40.0254 34.0653 40.0254 34.0296 40.0254 33.6409C40.0254 33.1237 40.6025 32.3538 41.739 32.3013V31.9408C41.3698 31.7305 41.1206 31.3343 41.1206 30.879C41.1206 30.205 41.6659 29.6577 42.3395 29.6577C43.0122 29.6577 43.5585 30.204 43.5585 30.879C43.5585 31.3343 43.3092 31.7305 42.9401 31.9408V32.3003C44.0756 32.3538 44.6537 33.1227 44.6537 33.64C44.6537 34.0296 44.6537 34.0643 44.6537 34.0643H40.0254V34.0653Z" fill="white"/>
<path d="M47.8196 34.9946H44.9153V34.7203H45.6989C45.7985 34.7203 45.8793 34.6663 45.8793 34.5997C45.8793 34.5331 45.7985 34.4792 45.6989 34.4792H44.9153V34.2048H45.4593C45.662 34.2048 45.8526 34.1521 45.9958 34.0563L47.1821 33.2634C47.2594 33.2891 47.3451 33.3028 47.434 33.3028C47.5852 33.3028 47.7273 33.2635 47.8342 33.1921C47.9411 33.1206 48 33.0256 48 32.9246C48 32.8235 47.9411 32.7285 47.8342 32.6571C47.7273 32.5856 47.5852 32.5463 47.434 32.5463C47.2828 32.5463 47.1407 32.5856 47.0338 32.6571C46.9269 32.7285 46.8681 32.8235 46.8681 32.9246C46.8681 32.984 46.8885 33.0412 46.927 33.0929L45.7407 33.8858C45.6656 33.936 45.5656 33.9637 45.4593 33.9637H44.9153V33.6977C44.9153 33.347 44.4884 33.0617 43.9638 33.0617H43.5658V31.9945C43.7896 31.944 43.9514 31.8024 43.9514 31.636C43.9514 31.4274 43.6975 31.2577 43.3854 31.2577C43.0734 31.2577 42.8195 31.4274 42.8195 31.636C42.8195 31.8024 42.9812 31.944 43.205 31.9945V33.0617H42.7946V32.538C42.7946 32.4714 42.7139 32.4174 42.6143 32.4174C42.5146 32.4174 42.4339 32.4714 42.4339 32.538V33.0617H42.0235V31.1206C42.0235 31.054 41.9427 31 41.8431 31C41.7435 31 41.6627 31.054 41.6627 31.1206V33.0617H41.2523V32.538C41.2523 32.4714 41.1716 32.4174 41.0719 32.4174C40.9723 32.4174 40.8916 32.4714 40.8916 32.538V33.0617H40.4812V32.6981C40.4812 32.5627 40.4022 32.4353 40.2589 32.3395L39.0722 31.5463C39.177 31.4049 39.1419 31.2285 38.9659 31.1108C38.7452 30.9633 38.3862 30.9633 38.1655 31.1108C37.9448 31.2583 37.9448 31.4983 38.1655 31.6458C38.2758 31.7195 38.4208 31.7564 38.5657 31.7564C38.652 31.7564 38.7381 31.743 38.8171 31.7168L40.0038 32.51C40.079 32.5603 40.1204 32.6271 40.1204 32.6981V33.0617H39.7224C39.642 33.0617 39.562 33.0685 39.4846 33.0818C39.3882 33.0984 39.3301 33.1641 39.3549 33.2286C39.3797 33.2931 39.4781 33.3319 39.5746 33.3153C39.6225 33.307 39.6723 33.3028 39.7224 33.3028H43.9638C44.2895 33.3028 44.5545 33.48 44.5545 33.6977V36.5326C44.5545 36.5661 44.5483 36.5993 44.536 36.6313C44.5112 36.6958 44.5693 36.7615 44.6657 36.7781C44.6808 36.7807 44.6959 36.7819 44.7108 36.7819C44.7911 36.7819 44.8644 36.7458 44.8853 36.6913C44.9052 36.6397 44.9153 36.5863 44.9153 36.5326V36.2665H46.5121C46.5876 36.4162 46.7994 36.5243 47.0484 36.5243C47.3605 36.5243 47.6144 36.3546 47.6144 36.146C47.6144 35.9374 47.3605 35.7677 47.0484 35.7677C46.7994 35.7677 46.5876 35.8758 46.5121 36.0254H44.9153V35.7511H45.6989C45.7985 35.7511 45.8792 35.6971 45.8792 35.6305C45.8792 35.564 45.7985 35.51 45.6989 35.51H44.9153V35.2357H47.8196C47.9192 35.2357 48 35.1817 48 35.1151C48 35.0486 47.9192 34.9946 47.8196 34.9946ZM47.2889 32.8276C47.3277 32.8017 47.3792 32.7874 47.434 32.7874C47.4888 32.7874 47.5403 32.8017 47.5791 32.8276C47.6179 32.8535 47.6392 32.8879 47.6392 32.9246C47.6392 32.9612 47.6179 32.9956 47.5791 33.0215C47.5403 33.0475 47.4888 33.0617 47.434 33.0617C47.3792 33.0617 47.3277 33.0475 47.2889 33.0215C47.2501 32.9956 47.2288 32.9612 47.2288 32.9246C47.2288 32.8879 47.2501 32.8535 47.2889 32.8276ZM43.3854 31.4988C43.4986 31.4988 43.5906 31.5604 43.5906 31.636C43.5906 31.7116 43.4985 31.7731 43.3854 31.7731C43.2723 31.7731 43.1802 31.7116 43.1802 31.636C43.1802 31.5604 43.2723 31.4988 43.3854 31.4988ZM38.4205 31.4753C38.3405 31.4218 38.3405 31.3348 38.4205 31.2813C38.4606 31.2546 38.5131 31.2412 38.5657 31.2412C38.6182 31.2412 38.6708 31.2546 38.7108 31.2813C38.7908 31.3348 38.7908 31.4218 38.7108 31.4753C38.6308 31.5287 38.5006 31.5287 38.4205 31.4753ZM47.0484 36.0089C47.1616 36.0089 47.2536 36.0704 47.2536 36.146C47.2536 36.2216 47.1616 36.2832 47.0484 36.2832C46.9353 36.2832 46.8432 36.2216 46.8432 36.146C46.8432 36.0704 46.9353 36.0089 47.0484 36.0089Z" fill="#249052" stroke="#249052" stroke-width="0.2"/>
<path d="M45.1829 39.369L43.9961 38.5759C43.921 38.5256 43.8796 38.4588 43.8796 38.3878V38.0242H44.2776C44.358 38.0242 44.438 38.0174 44.5153 38.0041C44.6118 37.9876 44.6699 37.9218 44.645 37.8573C44.6202 37.7929 44.5219 37.754 44.4254 37.7706C44.3774 37.7789 44.3277 37.7831 44.2776 37.7831H40.0362C39.7104 37.7831 39.4454 37.6059 39.4454 37.3882V34.5534C39.4454 34.5199 39.4517 34.4866 39.464 34.4546C39.4889 34.3901 39.4308 34.3244 39.3343 34.3078C39.2378 34.2912 39.1395 34.33 39.1147 34.3945C39.0947 34.4461 39.0847 34.4996 39.0847 34.5534V34.8194H37.4878C37.4124 34.6698 37.2005 34.5617 36.9515 34.5617C36.6394 34.5617 36.3856 34.7314 36.3856 34.94C36.3856 35.1485 36.6395 35.3182 36.9515 35.3182C37.2005 35.3182 37.4123 35.2101 37.4878 35.0605H39.0846V35.3348H38.3011C38.2014 35.3348 38.1207 35.3888 38.1207 35.4554C38.1207 35.522 38.2014 35.5759 38.3011 35.5759H39.0846V35.8502H36.1804C36.0808 35.8502 36 35.9042 36 35.9708C36 36.0374 36.0808 36.0914 36.1804 36.0914H39.0846V36.3657H38.3011C38.2014 36.3657 38.1207 36.4196 38.1207 36.4862C38.1207 36.5528 38.2014 36.6068 38.3011 36.6068H39.0846V36.8811H38.5406C38.338 36.8811 38.1474 36.9338 38.0041 37.0296L36.8178 37.8225C36.7405 37.7968 36.6548 37.7831 36.5659 37.7831C36.4147 37.7831 36.2726 37.8224 36.1657 37.8939C36.0589 37.9653 36 38.0603 36 38.1613C36 38.2624 36.0589 38.3574 36.1658 38.4288C36.2727 38.5003 36.4148 38.5396 36.566 38.5396C36.7172 38.5396 36.8593 38.5003 36.9662 38.4288C37.0731 38.3574 37.132 38.2624 37.132 38.1613C37.132 38.1019 37.1115 38.0447 37.073 37.993L38.2593 37.2001C38.3344 37.1499 38.4344 37.1222 38.5407 37.1222H39.0847V37.3882C39.0847 37.7389 39.5116 38.0242 40.0362 38.0242H40.4342V39.0914C40.2104 39.1419 40.0487 39.2834 40.0487 39.4499C40.0487 39.6585 40.3026 39.8281 40.6146 39.8281C40.9267 39.8281 41.1806 39.6584 41.1806 39.4499C41.1806 39.2834 41.0188 39.1419 40.795 39.0914V38.0242H41.2054V38.5479C41.2054 38.6145 41.2861 38.6684 41.3858 38.6684C41.4854 38.6684 41.5661 38.6145 41.5661 38.5479V38.0242H41.9765V39.9653C41.9765 40.0319 42.0573 40.0859 42.1569 40.0859C42.2565 40.0859 42.3373 40.0319 42.3373 39.9653V38.0242H42.7476V38.5479C42.7476 38.6145 42.8284 38.6685 42.928 38.6685C43.0276 38.6685 43.1084 38.6145 43.1084 38.5479V38.0242H43.5188V38.3878C43.5188 38.5232 43.5977 38.6506 43.741 38.7464L44.9278 39.5395C44.8229 39.681 44.8581 39.8574 45.0341 39.9751C45.1444 40.0488 45.2894 40.0857 45.4343 40.0857C45.5792 40.0857 45.7242 40.0488 45.8345 39.9751C46.0552 39.8276 46.0552 39.5876 45.8345 39.4401C45.6585 39.3225 45.3945 39.299 45.1829 39.369ZM36.9515 35.0771C36.8384 35.0771 36.7463 35.0156 36.7463 34.94C36.7463 34.8643 36.8384 34.8028 36.9515 34.8028C37.0647 34.8028 37.1567 34.8643 37.1567 34.94C37.1567 35.0156 37.0647 35.0771 36.9515 35.0771ZM36.711 38.2583C36.6723 38.2842 36.6208 38.2985 36.566 38.2985C36.5111 38.2985 36.4596 38.2842 36.4209 38.2583C36.3821 38.2324 36.3608 38.198 36.3608 38.1613C36.3608 38.1247 36.3821 38.0903 36.4209 38.0644C36.4596 38.0384 36.5111 38.0242 36.566 38.0242C36.6208 38.0242 36.6723 38.0384 36.711 38.0644C36.7498 38.0903 36.7711 38.1247 36.7711 38.1613C36.7711 38.198 36.7498 38.2324 36.711 38.2583ZM40.6146 39.5871C40.5014 39.5871 40.4094 39.5255 40.4094 39.4499C40.4094 39.3743 40.5014 39.3128 40.6146 39.3128C40.7277 39.3128 40.8198 39.3743 40.8198 39.4499C40.8198 39.5255 40.7277 39.5871 40.6146 39.5871ZM45.5794 39.8046C45.4994 39.8581 45.3692 39.8581 45.2892 39.8046C45.2092 39.7511 45.2092 39.6641 45.2892 39.6106C45.3292 39.5839 45.3818 39.5705 45.4343 39.5705C45.4869 39.5705 45.5394 39.5839 45.5794 39.6106C45.6594 39.6641 45.6594 39.7511 45.5794 39.8046Z" fill="#249052" stroke="#249052" stroke-width="0.2"/>
<path d="M30.7113 21.3693H26.0645V20.8633H27.3182C27.4776 20.8633 27.6068 20.7637 27.6068 20.6409C27.6068 20.5181 27.4776 20.4185 27.3182 20.4185H26.0645V19.9124H26.9349C27.2592 19.9124 27.5641 19.8151 27.7934 19.6384L29.6914 18.1756C29.8151 18.2231 29.9522 18.2484 30.0944 18.2484C30.3363 18.2484 30.5637 18.1758 30.7348 18.044C30.9058 17.9122 31 17.7369 31 17.5505C31 17.3641 30.9058 17.1889 30.7348 17.057C30.5637 16.9252 30.3363 16.8526 30.0944 16.8526C29.8526 16.8526 29.6252 16.9252 29.4541 17.057C29.2831 17.1888 29.1889 17.3641 29.1889 17.5505C29.1889 17.6601 29.2217 17.7658 29.2833 17.8611L27.3852 19.3238C27.2649 19.4165 27.105 19.4676 26.9349 19.4676H26.0645V18.9768C26.0645 18.3299 25.3815 17.8036 24.542 17.8036H23.9053V15.8346C24.2634 15.7415 24.5222 15.4803 24.5222 15.1733C24.5222 14.7885 24.1159 14.4754 23.6167 14.4754C23.1174 14.4754 22.7111 14.7885 22.7111 15.1733C22.7111 15.4803 22.9699 15.7415 23.328 15.8346V17.8035H22.6714V16.8373C22.6714 16.7145 22.5422 16.6149 22.3828 16.6149C22.2234 16.6149 22.0942 16.7145 22.0942 16.8373V17.8035H21.4375V14.2224C21.4375 14.0996 21.3083 14 21.1489 14C20.9896 14 20.8603 14.0996 20.8603 14.2224V17.8035H20.2037V16.8373C20.2037 16.7145 20.0745 16.6149 19.9151 16.6149C19.7557 16.6149 19.6265 16.7145 19.6265 16.8373V17.8035H18.9699V17.1328C18.9699 16.8829 18.8436 16.6479 18.6143 16.4712L16.7155 15.0079C16.8833 14.7469 16.8271 14.4215 16.5454 14.2044C16.1923 13.9323 15.6179 13.9324 15.2648 14.2044C14.9117 14.4765 14.9117 14.9192 15.2648 15.1913C15.4413 15.3274 15.6732 15.3954 15.9051 15.3954C16.0432 15.3954 16.181 15.3707 16.3074 15.3224L18.2062 16.7858C18.3264 16.8784 18.3927 17.0017 18.3927 17.1328V17.8035H17.7559C17.6272 17.8035 17.4992 17.816 17.3754 17.8405C17.2211 17.8711 17.1281 17.9924 17.1678 18.1114C17.2076 18.2303 17.3649 18.3019 17.5193 18.2713C17.5961 18.2561 17.6756 18.2484 17.7559 18.2484H24.542C25.0632 18.2484 25.4873 18.5752 25.4873 18.9768V24.2067C25.4873 24.2685 25.4773 24.3298 25.4576 24.3889C25.4179 24.5078 25.5108 24.6291 25.6652 24.6596C25.6893 24.6644 25.7134 24.6667 25.7373 24.6667C25.8658 24.6667 25.9831 24.6 26.0166 24.4996C26.0483 24.4043 26.0645 24.3058 26.0645 24.2067V23.7159H28.6193C28.7401 23.9919 29.079 24.1913 29.4774 24.1913C29.9768 24.1913 30.383 23.8783 30.383 23.4935C30.383 23.1087 29.9767 22.7957 29.4774 22.7957C29.079 22.7957 28.7402 22.9951 28.6193 23.2711H26.0645V22.765H27.3182C27.4776 22.765 27.6068 22.6654 27.6068 22.5426C27.6068 22.4198 27.4776 22.3202 27.3182 22.3202H26.0645V21.8142H30.7113C30.8707 21.8142 30.9999 21.7146 30.9999 21.5918C30.9999 21.4689 30.8707 21.3693 30.7113 21.3693ZM29.8623 17.3716C29.9243 17.3238 30.0067 17.2975 30.0944 17.2975C30.1821 17.2975 30.2645 17.3238 30.3266 17.3716C30.3886 17.4194 30.4227 17.4829 30.4227 17.5505C30.4227 17.6181 30.3886 17.6816 30.3266 17.7294C30.2645 17.7772 30.1821 17.8035 30.0944 17.8035C30.0067 17.8035 29.9243 17.7772 29.8623 17.7294C29.8002 17.6816 29.7661 17.6181 29.7661 17.5505C29.7661 17.4829 29.8002 17.4194 29.8623 17.3716ZM23.6167 14.9203C23.7977 14.9203 23.945 15.0338 23.945 15.1733C23.945 15.3128 23.7977 15.4263 23.6167 15.4263C23.4356 15.4263 23.2883 15.3128 23.2883 15.1733C23.2883 15.0338 23.4356 14.9203 23.6167 14.9203ZM15.6729 14.8768C15.5449 14.7781 15.5449 14.6176 15.6729 14.519C15.7369 14.4696 15.821 14.445 15.9051 14.445C15.9891 14.445 16.0732 14.4697 16.1372 14.519C16.2652 14.6176 16.2652 14.7782 16.1372 14.8768C16.0092 14.9754 15.8009 14.9755 15.6729 14.8768ZM29.4775 23.2405C29.6585 23.2405 29.8058 23.354 29.8058 23.4935C29.8058 23.6331 29.6585 23.7465 29.4775 23.7465C29.2965 23.7465 29.1492 23.633 29.1492 23.4935C29.1491 23.354 29.2964 23.2405 29.4775 23.2405Z" fill="#249052" stroke="#249052" stroke-width="0.3"/>
<path d="M25.6926 28.6776L23.7938 27.2143C23.6735 27.1216 23.6073 26.9984 23.6073 26.8673V26.1965H24.2441C24.3728 26.1965 24.5008 26.1841 24.6245 26.1596C24.7789 26.129 24.8718 26.0077 24.8321 25.8887C24.7924 25.7698 24.6351 25.6982 24.4806 25.7288C24.4039 25.744 24.3243 25.7517 24.2441 25.7517H17.4579C16.9367 25.7517 16.5127 25.4249 16.5127 25.0233V19.7935C16.5127 19.7317 16.5227 19.6704 16.5424 19.6113C16.5822 19.4923 16.4892 19.3711 16.3349 19.3405C16.1805 19.3098 16.0232 19.3814 15.9835 19.5004C15.9516 19.5957 15.9355 19.6943 15.9355 19.7935V20.2843H13.3806C13.2598 20.0082 12.9209 19.8088 12.5224 19.8088C12.0231 19.8088 11.6169 20.1219 11.6169 20.5067C11.6169 20.8915 12.0232 21.2045 12.5224 21.2045C12.9209 21.2045 13.2597 21.0051 13.3806 20.7291H15.9354V21.2351H14.6817C14.5223 21.2351 14.3931 21.3347 14.3931 21.4576C14.3931 21.5804 14.5223 21.68 14.6817 21.68H15.9354V22.186H11.2886C11.1292 22.186 11 22.2856 11 22.4084C11 22.5312 11.1292 22.6308 11.2886 22.6308H15.9354V23.1368H14.6817C14.5223 23.1368 14.3931 23.2364 14.3931 23.3592C14.3931 23.4821 14.5223 23.5817 14.6817 23.5817H15.9354V24.0877H15.065C14.7407 24.0877 14.4358 24.185 14.2066 24.3617L12.3085 25.8245C12.1848 25.777 12.0477 25.7517 11.9055 25.7517C11.6636 25.7517 11.4362 25.8243 11.2652 25.9561C11.0942 26.0879 11 26.2632 11 26.4496C11 26.6359 11.0942 26.8112 11.2652 26.943C11.4363 27.0748 11.6637 27.1474 11.9056 27.1474C12.1474 27.1474 12.3748 27.0748 12.5459 26.943C12.7169 26.8112 12.8111 26.636 12.8111 26.4496C12.8111 26.34 12.7783 26.2343 12.7167 26.139L14.6148 24.6762C14.7351 24.5836 14.895 24.5325 15.0651 24.5325H15.9355V25.0232C15.9355 25.6702 16.6185 26.1965 17.458 26.1965H18.0948V28.1654C17.7366 28.2585 17.4778 28.5196 17.4778 28.8267C17.4778 29.2115 17.8841 29.5245 18.3834 29.5245C18.8826 29.5245 19.2889 29.2114 19.2889 28.8267C19.2889 28.5196 19.0301 28.2585 18.672 28.1654V26.1965H19.3286V27.1627C19.3286 27.2855 19.4578 27.3851 19.6172 27.3851C19.7766 27.3851 19.9058 27.2855 19.9058 27.1627V26.1965H20.5624V29.7776C20.5624 29.9004 20.6916 30 20.851 30C21.0104 30 21.1396 29.9004 21.1396 29.7776V26.1965H21.7962V27.1627C21.7962 27.2855 21.9255 27.3851 22.0848 27.3851C22.2442 27.3851 22.3734 27.2855 22.3734 27.1627V26.1965H23.0301V26.8673C23.0301 27.1172 23.1564 27.3522 23.3857 27.5288L25.2844 28.9921C25.1167 29.2531 25.1729 29.5785 25.4546 29.7956C25.6311 29.9316 25.863 29.9996 26.0949 29.9996C26.3268 29.9996 26.5587 29.9316 26.7352 29.7956C27.0883 29.5235 27.0883 29.0808 26.7352 28.8087C26.4536 28.5916 26.0312 28.5483 25.6926 28.6776ZM12.5224 20.7597C12.3414 20.7597 12.1941 20.6462 12.1941 20.5067C12.1941 20.3672 12.3414 20.2537 12.5224 20.2537C12.7035 20.2537 12.8508 20.3672 12.8508 20.5067C12.8508 20.6462 12.7035 20.7597 12.5224 20.7597ZM12.1377 26.6285C12.0756 26.6763 11.9932 26.7026 11.9055 26.7026C11.8178 26.7026 11.7354 26.6763 11.6734 26.6285C11.6113 26.5807 11.5772 26.5171 11.5772 26.4496C11.5772 26.382 11.6113 26.3185 11.6734 26.2706C11.7354 26.2228 11.8178 26.1965 11.9055 26.1965C11.9932 26.1965 12.0756 26.2228 12.1377 26.2706C12.1997 26.3185 12.2338 26.382 12.2338 26.4496C12.2338 26.5171 12.1997 26.5807 12.1377 26.6285ZM18.3833 29.0797C18.2022 29.0797 18.055 28.9662 18.055 28.8267C18.055 28.6872 18.2023 28.5737 18.3833 28.5737C18.5643 28.5737 18.7116 28.6872 18.7116 28.8267C18.7116 28.9662 18.5643 29.0797 18.3833 29.0797ZM26.3271 29.4811C26.1991 29.5797 25.9908 29.5797 25.8627 29.4811C25.7347 29.3824 25.7347 29.2219 25.8627 29.1232C25.9268 29.0739 26.0108 29.0493 26.0949 29.0493C26.179 29.0493 26.2631 29.0739 26.3271 29.1232C26.4551 29.2219 26.4551 29.3824 26.3271 29.4811Z" fill="#249052" stroke="#249052" stroke-width="0.3"/>
</svg>
